{"title":"Real Time With Bill Maher JUST OVERTIME 2013.11.08.mp4","uid":9166040,"size":99907193,"categoryP":"video","categoryS":"tv_shows","magnet":"?xt=urn:btih:980eaca6bd594d79831395281b9ecebde1cb4d70&amp;dn=Real+Time+With+Bill+Maher+JUST+OVERTIME+2013.11.08.mp4&amp;tr=udp%3A%2F%2Ftracker.openbittorrent.com%3A80&amp;tr=udp%3A%2F%2Fopen.demonii.com%3A1337&amp;tr=udp%3A%2F%2Ftracker.coppersurfer.tk%3A6969&amp;tr=udp%3A%2F%2Fexodus.desync.com%3A6969","seeders":1,"leechers":1,"uploader":"fbjosrcw","files":1,"time":1383984804,"description":"\nReal.Time.With.Bill.Maher.JUST.OVERTIME.2013.11.08.mp4\n\n\nVideo\nID                               : 1\nFormat                           : AVC\nFormat/Info                      : Advanced Video Codec\nFormat profile                   : &lt;a class=&quot;__cf_email__&quot; href=&quot;/cdn-cgi/l/email-protection&quot; data-cfemail=&quot;1f527e76715f532c312e&quot;&gt;[email&amp;#160;protected]&lt;/a&gt;&lt;script cf-hash='f9e31' type=&quot;text/javascript&quot;&gt;\n/* &lt;![CDATA[ */!function(){try{var t=&quot;currentScript&quot;in document?document.currentScript:function(){for(var t=document.getElementsByTagName(&quot;script&quot;),e=t.length;e--;)if(t[e].getAttribute(&quot;cf-hash&quot;))return t[e]}();if(t&amp;&amp;t.previousSibling){var e,r,n,i,c=t.previousSibling,a=c.getAttribute(&quot;data-cfemail&quot;);if(a){for(e=&quot;&quot;,r=parseInt(a.substr(0,2),16),n=2;a.length-n;n+=2)i=parseInt(a.substr(n,2),16)^r,e+=String.fromCharCode(i);e=document.createTextNode(e),c.parentNode.replaceChild(e,c)}}}catch(u){}}();/* ]]&gt; */&lt;/script&gt;\nFormat settings, CABAC           : No\nFormat settings, ReFrames        : 2 frames\nFormat settings, GOP             : M=2, N=24\nCodec ID                         : avc1\nCodec ID/Info                    : Advanced Video Coding\nDuration                         : 8mn 37s\nBit rate                         : 1 416 Kbps\nMaximum bit rate                 : 3 060 Kbps\nWidth                            : 864 pixels\nHeight                           : 486 pixels\nDisplay aspect ratio             : 16:9\nFrame rate mode                  : Constant\nFrame rate                       : 29.970 fps\nColor space                      : YUV\nChroma subsampling               : 4:2:0\nBit depth                        : 8 bits\nScan type                        : Progressive\nBits/(Pixel*Frame)               : 0.113\nStream size                      : 87.3 MiB (92%)\nEncoded date                     : UTC 2013-11-08 07:01:07\nTagged date                      : UTC 2013-11-08 07:01:11\nColor primaries                  : BT.709-5, BT.1361, IEC 61966-2-4, SMPTE RP177\nTransfer characteristics         : BT.709-5, BT.1361\nMatrix coefficients              : BT.709-5, BT.1361, IEC 61966-2-4 709, SMPTE RP177\n\nAudio\nID                               : 2\nFormat                           : AAC\nFormat/Info                      : Advanced Audio Codec\nFormat profile                   : LC\nCodec ID                         : 40\nDuration                         : 8mn 37s\nBit rate mode                    : Variable\nBit rate                         : 126 Kbps\nMaximum bit rate                 : 171 Kbps\nChannel(s)                       : 2 channels\nChannel positions                : Front: L R\nSampling rate                    : 44.1 KHz\nCompression mode                 : Lossy\nStream size                      : 7.74 MiB (8%)\nEncoded date                     : UTC 2013-11-08 07:01:10\nTagged date                      : UTC 2013-11-08 07:01:11","torrent":{"xt":"urn:btih:980eaca6bd594d79831395281b9ecebde1cb4d70","amp;dn":"Real+Time+With+Bill+Maher+JUST+OVERTIME+2013.11.08.mp4","amp;tr":["udp%3A%2F%2Ftracker.openbittorrent.com%3A80","udp%3A%2F%2Fopen.demonii.com%3A1337","udp%3A%2F%2Ftracker.coppersurfer.tk%3A6969","udp%3A%2F%2Fexodus.desync.com%3A6969"],"infoHash":"980eaca6bd594d79831395281b9ecebde1cb4d70","infoHashBuffer":{"type":"Buffer","data":[152,14,172,166,189,89,77,121,131,19,149,40,27,158,206,189,225,203,77,112]},"announce":[],"urlList":[]}}